#!OML:ASF F:\VICON\USERDATA\INSTALL\Justin_Nancy\Justin_Nancy.ASF
:FULLY-SPECIFIED
:DEGREES
217
root -10.6042 17.8026 -3.00097 0.715772 12.0322 -2.8552
lowerback 7.10741 -0.456375 1.73175
upperback 0.919819 -0.358839 3.24794
thorax -3.0261 -0.179017 2.41864
lowerneck -15.0504 -2.58687 -8.62545
upperneck 23.0085 -1.96934 2.44504
head 9.92799 -1.3711 2.05041
rclavicle 6.75868e-015 -6.36111e-015
rhumerus -33.342 -12.781 -76.3277
rradius 28.2225
rwrist 8.35034
rhand -14.4394 15.8745
rfingers 7.12502
rthumb 11.7054 -13.7785
lclavicle 6.75868e-015 -6.36111e-015
lhumerus -31.6727 8.26934 84.7781
lradius 31.6095
lwrist -8.66841
lhand -15.8462 24.9175
lfingers 7.12502
lthumb 10.3485 54.6428
rfemur -8.30528 5.36004 21.9974
rtibia 16.5833
rfoot -8.16014 3.35314
rtoes 6.44334
lfemur -22.6238 2.11521 -17.1413
ltibia 62.1151
lfoot -2.13553 -5.33416
ltoes -6.13414
218
root -10.6014 17.7942 -2.89408 0.753888 12.6422 -2.88836
lowerback 7.10069 -0.477935 1.73139
upperback 0.972524 -0.388845 3.26096
thorax -2.96685 -0.193728 2.43455
lowerneck -15.318 -2.61681 -8.80268
upperneck 23.1537 -1.97269 2.58869
head 10.0349 -1.37268 2.13036
rclavicle 8.44835e-015 -3.10104e-014
rhumerus -32.9524 -12.7797 -76.2199
rradius 28.0917
rwrist 8.58735
rhand -15.1853 17.0227
rfingers 7.12502
rthumb 10.9861 -12.6699
lclavicle 8.44835e-015 -3.10104e-014
lhumerus -31.624 8.63835 84.8081
lradius 31.4255
lwrist -8.77115
lhand -15.1227 25.8092
lfingers 7.12502
lthumb 11.0464 55.4986
rfemur -8.01691 5.07182 22.1576
rtibia 16.8259
rfoot -8.62616 2.88609
rtoes 6.52335
lfemur -23.675 2.52023 -17.1428
ltibia 62.1848
lfoot -3.02511 -4.38535
ltoes -6.48554
219
root -10.5924 17.7836 -2.78692 0.770922 13.2125 -2.93991
lowerback 7.13774 -0.458373 1.89564
upperback 1.00565 -0.351576 3.19553
thorax -2.95577 -0.177096 2.27069
lowerneck -15.4871 -2.671 -8.78497
upperneck 23.2936 -2.05289 2.66035
head 10.1226 -1.40104 2.14277
rclavicle 5.86415e-015 2.14687e-014
rhumerus -32.8411 -12.9706 -76.1067
rradius 28.1436
rwrist 9.17935
rhand -15.4504 16.9942
rfingers 7.12502
rthumb 10.7303 -12.7118
lclavicle 5.86415e-015 2.14687e-014
lhumerus -31.6682 8.75694 84.8112
lradius 31.1818
lwrist -8.28914
lhand -15.1166 26.3905
lfingers 7.12502
lthumb 11.0522 56.0795
rfemur -7.76292 4.84861 22.3077
rtibia 17.2058
rfoot -9.207 2.4325
rtoes 6.30234
lfemur -24.5951 2.97681 -17.1683
ltibia 62.075
lfoot -4.22043 -3.49224
ltoes -7.10753
220
root -10.5826 17.7748 -2.67831 0.862272 13.6471 -3.02008
lowerback 7.15718 -0.410212 2.04995
upperback 0.949327 -0.274761 3.12372
thorax -3.02794 -0.140952 2.10276
lowerneck -15.5567 -2.66224 -8.61127
upperneck 23.3599 -2.06132 2.59408
head 10.1567 -1.39753 2.08952
rclavicle 9.93923e-015 -4.05521e-014
rhumerus -32.8992 -12.9685 -76.0949
rradius 28.2981
rwrist 9.12502
rhand -15.6094 17.0661
rfingers 7.12502
rthumb 10.5769 -12.6477
lclavicle 9.93923e-015 -4.05521e-014
lhumerus -31.9356 8.9232 84.7031
lradius 30.8327
lwrist -7.89841
lhand -15.9284 25.4318
lfingers 7.12502
lthumb 10.2692 55.1611
rfemur -7.55238 4.68337 22.4883
rtibia 17.4761
rfoot -9.77142 2.10647
rtoes 6.23192
lfemur -25.5649 3.48926 -17.1926
ltibia 61.7774
lfoot -5.16806 -2.57121
ltoes -7.31585
221
root -10.5735 17.7717 -2.56989 1.00811 14.0139 -2.93991
lowerback 7.14 -0.323003 2.01703
upperback 0.888324 -0.162914 3.03073
thorax -3.08395 -0.0856084 2.01432
lowerneck -15.6251 -2.70524 -8.7611
upperneck 23.4999 -2.12047 2.77892
head 10.2279 -1.41813 2.17358
rclavicle 1.92821e-014 -2.46493e-014
rhumerus -32.7376 -13.0606 -76.0278
rradius 28.2289
rwrist 9.15144
rhand -15.3946 16.9226
rfingers 7.12502
rthumb 10.7841 -12.7806
lclavicle 1.92821e-014 -2.46493e-014
lhumerus -32.2119 8.79426 84.7059
lradius 30.6324
lwrist -7.73923
lhand -16.1286 23.7812
lfingers 7.12502
lthumb 10.0761 53.5199
rfemur -7.34253 4.55041 22.503
rtibia 17.6591
rfoot -10.1214 1.80764
rtoes 5.56757
lfemur -26.4816 4.02432 -17.4241
ltibia 61.2219
lfoot -5.70268 -1.51536
ltoes -7.67044
222
root -10.5628 17.7741 -2.46162 1.0234 14.4058 -3.0284
lowerback 7.15632 -0.266015 2.0419
upperback 0.930417 -0.083437 3.09122
thorax -3.05113 -0.0457219 2.05519
lowerneck -15.8703 -2.78911 -9.0848
upperneck 23.6929 -2.16137 2.9239
head 10.3549 -1.45064 2.27466
rclavicle -7.95139e-016 1.35174e-014
rhumerus -32.3459 -12.8519 -75.9286
rradius 28.1689
rwrist 9.02851
rhand -15.5995 16.7797
rfingers 7.12502
rthumb 10.5865 -12.9336
lclavicle -7.95139e-016 1.35174e-014
lhumerus -32.4058 8.96334 84.7898
lradius 30.6007
lwrist -7.86858
lhand -16.4004 24.004
lfingers 7.12502
lthumb 9.81385 53.7553
rfemur -7.01474 4.50995 22.702
rtibia 17.8425
rfoot -10.5225 1.31684
rtoes 5.68594
lfemur -27.2299 4.4269 -17.4786
ltibia 60.49
lfoot -6.08025 -0.539632
ltoes -6.35331
223
root -10.5487 17.7681 -2.34926 0.97631 14.918 -3.17281
lowerback 7.18287 -0.243909 2.24498
upperback 1.05347 -0.0416085 3.07604
thorax -2.9397 -0.0265149 1.92046
lowerneck -16.5022 -2.90578 -9.28653
upperneck 24.0102 -2.25363 3.11657
head 10.6041 -1.49045 2.36531
rclavicle 8.24956e-015 3.02153e-014
rhumerus -32.0138 -12.8711 -75.9164
rradius 28.4174
rwrist 8.64068
rhand -15.8709 16.9907
rfingers 7.12502
rthumb 10.3247 -12.7359
lclavicle 8.24956e-015 3.02153e-014
lhumerus -32.6086 8.8065 84.8092
lradius 30.7015
lwrist -7.77463
lhand -16.9805 24.4698
lfingers 7.12502
lthumb 9.25412 54.2467
rfemur -6.59247 4.26884 22.9527
rtibia 17.9644
rfoot -10.9594 0.93102
rtoes 6.32345
lfemur -27.8446 4.71638 -17.4968
ltibia 59.6781
lfoot -6.86198 0.0133836
ltoes -4.88248
224
root -10.5309 17.7535 -2.24491 1.0607 15.3081 -3.10434
lowerback 7.18799 -0.151218 2.28191
upperback 1.29423 0.0745348 3.02643
thorax -2.69538 0.0322117 1.83562
lowerneck -17.6405 -3.1309 -9.62382
upperneck 24.4615 -2.42964 3.40505
head 11.0139 -1.56828 2.5011
rclavicle 4.1546e-014 5.64548e-014
rhumerus -31.3285 -13.0436 -75.8623
rradius 28.5464
rwrist 8.41271
rhand -15.801 16.7595
rfingers 7.12502
rthumb 10.3921 -12.9637
lclavicle 4.1546e-014 5.64548e-014
lhumerus -32.4083 8.61852 85.0238
lradius 30.7136
lwrist -7.73243
lhand -16.1382 24.117
lfingers 7.12502
lthumb 10.0669 53.8562
rfemur -6.25293 3.99859 22.9504
rtibia 17.9787
rfoot -11.5152 0.555151
rtoes 4.68638
lfemur -28.5598 5.11054 -17.7729
ltibia 58.7742
lfoot -7.10093 0.743477
ltoes -3.21251
225
root -10.5221 17.7357 -2.1392 1.0769 15.6887 -3.43017
lowerback 7.25777 -0.0473089 2.53882
upperback 1.22337 0.241171 3.09227
thorax -2.80945 0.112724 1.74443
lowerneck -17.3898 -3.12938 -9.6233
upperneck 24.3536 -2.46819 3.46283
head 10.9281 -1.57732 2.51654
rclavicle 4.8901e-014 -2.62396e-014
rhumerus -31.345 -12.7661 -75.7661
rradius 28.7765
rwrist 7.74869
rhand -15.7643 16.9901
rfingers 7.12502
rthumb 10.4276 -12.7313
lclavicle 4.8901e-014 -2.62396e-014
lhumerus -32.4927 8.40624 85.1728
lradius 30.5902
lwrist -7.879
lhand -15.0392 24.6577
lfingers 7.12502
lthumb 11.127 54.3427
rfemur -6.0012 3.98675 23.4191
rtibia 18.028
rfoot -11.9508 -0.0715119
rtoes 3.70902
lfemur -29.3927 5.56826 -17.5914
ltibia 57.835
lfoot -7.17683 1.52572
ltoes -2.56246
226
root -10.5082 17.7321 -2.02656 1.12217 16.0331 -3.60368
lowerback 7.2003 0.0259259 2.61235
upperback 1.14429 0.346567 3.13818
thorax -2.86034 0.164324 1.74083
lowerneck -16.7543 -3.01344 -9.39279
upperneck 23.9325 -2.37862 3.24967
head 10.6362 -1.53621 2.41149
rclavicle 1.11319e-014 -7.15625e-015
rhumerus -31.5346 -12.5973 -75.6303
rradius 29.19
rwrist 7.39858
rhand -15.5848 17.4959
rfingers 7.12502
rthumb 10.6007 -12.2167
lclavicle 1.11319e-014 -7.15625e-015
lhumerus -32.7511 8.28582 85.2634
lradius 30.3541
lwrist -7.46305
lhand -16.1557 24.5649
lfingers 7.12502
lthumb 10.0499 54.3049
rfemur -5.72911 4.13778 23.7284
rtibia 18.1147
rfoot -12.1972 -0.599426
rtoes 4.24472
lfemur -30.102 6.04532 -17.592
ltibia 56.7147
lfoot -8.10875 1.65295
ltoes -3.87721
